<?xml version="1.0" standalone="no"?>
<!DOCTYPE svg PUBLIC "-//W3C//DTD SVG 20010904//EN"
 "http://www.w3.org/TR/2001/REC-SVG-20010904/DTD/svg10.dtd">
<svg version="1.0" xmlns="http://www.w3.org/2000/svg"
 width="256.000000pt" height="256.000000pt" viewBox="0 0 256.000000 256.000000"
 preserveAspectRatio="xMidYMid meet">

<g transform="translate(0.000000,256.000000) scale(0.100000,-0.100000)"
fill="#000000" stroke="none">
<path d="M1135 2554 c-95 -15 -200 -40 -275 -66 -427 -150 -739 -507 -836
-958 -26 -119 -26 -381 0 -500 34 -156 106 -334 180 -440 26 -38 32 -57 37
-123 5 -70 9 -81 36 -109 22 -22 43 -32 77 -35 l46 -6 0 -62 c0 -71 22 -114
80 -153 29 -19 44 -23 85 -19 28 2 57 8 67 11 11 5 21 -1 35 -24 56 -96 222
-90 273 10 16 32 20 59 20 140 l0 100 320 0 320 0 0 -100 c0 -81 4 -108 20
-140 51 -100 217 -106 273 -10 14 23 24 29 35 24 10 -3 40 -9 67 -11 41 -4 56
0 85 19 58 39 80 82 80 153 l0 62 46 6 c34 3 55 13 77 35 27 28 31 39 36 109
5 66 11 85 37 123 74 106 146 284 180 440 26 119 26 381 0 500 -109 506 -482
885 -986 1001 -83 19 -344 34 -415 23z m405 -103 c462 -105 815 -464 916 -931
26 -118 26 -362 0 -480 -30 -137 -85 -275 -154 -386 -24 -39 -26 -41 -51 -28
-14 8 -40 14 -57 14 -28 0 -32 4 -37 32 -4 26 5 54 43 128 91 180 128 349 117
540 -27 457 -346 839 -797 953 -69 17 -115 21 -240 21 -125 0 -171 -4 -240
-21 -451 -114 -770 -496 -797 -953 -11 -191 26 -360 117 -540 38 -74 47 -102
43 -127 -5 -29 -9 -33 -37 -33 -17 0 -43 -6 -57 -14 -26 -13 -27 -12 -57 38
-69 114 -120 248 -153 401 -18 81 -18 341 0 430 73 370 304 681 628 847 136
70 250 106 418 132 68 10 312 -4 395 -23z m-298 -282 c2 -55 7 -74 21 -83 12
-8 22 -8 35 0 13 9 18 28 20 83 l3 73 52 -7 c197 -25 375 -98 512 -211 l45
-37 -50 -53 c-27 -29 -50 -56 -50 -60 0 -11 32 -44 42 -44 5 0 33 23 62 50
l53 50 37 -45 c112 -136 186 -317 211 -512 l7 -52 -73 -3 c-55 -2 -74 -7 -83
-20 -8 -13 -8 -23 0 -36 9 -13 28 -18 83 -20 l72 -3 -6 -57 c-15 -129 -58
-265 -113 -360 -21 -36 -28 -42 -46 -37 -42 14 -96 17 -126 7 -29 -11 -30 -10
-30 19 0 113 -132 184 -240 129 -62 -31 -80 -77 -80 -200 l0 -100 -320 0 -320
0 0 100 c0 123 -18 169 -80 200 -108 55 -240 -16 -240 -129 0 -29 -1 -30 -30
-19 -30 10 -84 7 -126 -7 -18 -5 -25 1 -46 37 -55 95 -98 231 -113 360 l-6 57
72 3 c55 2 74 7 83 21 8 12 8 22 0 35 -9 13 -28 18 -83 20 l-73 3 7 52 c25
197 98 375 211 512 l37 45 53 -50 c55 -52 75 -56 95 -19 8 16 1 28 -41 73
l-50 53 45 37 c133 109 295 178 495 209 71 12 69 13 72 -64z m-385 -1311 l23
-21 0 -356 c0 -350 0 -355 -22 -378 -28 -30 -83 -31 -115 -1 l-23 21 0 356 c0
350 0 355 22 378 28 30 83 31 115 1z m960 0 l23 -21 0 -356 c0 -350 0 -355
-22 -378 -28 -30 -83 -31 -115 -1 l-23 21 0 356 c0 350 0 355 22 378 28 30 83
31 115 1z m-1202 -163 l25 -24 0 -231 0 -231 -25 -24 c-15 -16 -36 -25 -55
-25 -19 0 -40 9 -55 25 l-25 24 0 231 0 231 25 24 c15 16 36 25 55 25 19 0 40
-9 55 -25z m1440 0 l25 -24 0 -231 0 -231 -25 -24 c-32 -33 -78 -33 -110 0
l-25 24 0 231 0 231 25 24 c15 16 36 25 55 25 19 0 40 -9 55 -25z m-1655 -215
l0 -80 -28 0 c-41 0 -52 17 -52 80 0 63 11 80 52 80 l28 0 0 -80z m1200 0 l0
-80 -320 0 -320 0 0 80 0 80 320 0 320 0 0 -80z m628 68 c7 -7 12 -37 12 -68
0 -63 -11 -80 -52 -80 l-28 0 0 80 0 80 28 0 c15 0 33 -5 40 -12z"/>
<path d="M1252 1908 c-9 -9 -12 -80 -12 -260 l0 -248 -37 -34 c-34 -31 -38
-39 -38 -85 0 -44 4 -55 33 -83 28 -29 39 -33 83 -33 46 0 54 4 85 37 l34 38
171 2 c151 3 173 5 183 21 8 12 8 22 0 35 -10 15 -32 17 -182 20 l-170 2 -41
41 -41 41 0 247 c0 254 -3 271 -40 271 -9 0 -21 -5 -28 -12z m58 -603 c26 -32
-13 -81 -47 -59 -35 22 -23 74 17 74 10 0 23 -7 30 -15z"/>
</g>
</svg>
